<svg width="23" height="26" viewBox="0 0 23 26" fill="none" xmlns="http://www.w3.org/2000/svg">
<mask id="mask0_156_1029" style="mask-type:luminance" maskUnits="userSpaceOnUse" x="0" y="0" width="23" height="21">
<path fill-rule="evenodd" clip-rule="evenodd" d="M0.5 0.166992H22.0797V20.4063H0.5V0.166992Z" fill="white"/>
</mask>
<g mask="url(#mask0_156_1029)">
<path fill-rule="evenodd" clip-rule="evenodd" d="M11.2882 1.91699C7.21068 1.91699 4.36868 5.11133 4.36868 7.97783C4.36868 10.4033 3.69552 11.5245 3.10052 12.5138C2.62335 13.3083 2.24652 13.936 2.24652 15.2998C2.44135 17.5002 3.89385 18.6563 11.2882 18.6563C18.6417 18.6563 20.1397 17.4488 20.3333 15.224C20.3298 13.936 19.953 13.3083 19.4758 12.5138C18.8808 11.5245 18.2077 10.4033 18.2077 7.97783C18.2077 5.11133 15.3657 1.91699 11.2882 1.91699ZM11.2882 20.4063C5.83285 20.4063 0.902516 20.0213 0.500016 15.3745C0.496516 13.4518 1.08335 12.4742 1.60135 11.6132C2.12518 10.7405 2.61868 9.91799 2.61868 7.97783C2.61868 4.20599 6.10235 0.166992 11.2882 0.166992C16.474 0.166992 19.9577 4.20599 19.9577 7.97783C19.9577 9.91799 20.4512 10.7405 20.975 11.6132C21.493 12.4742 22.0798 13.4518 22.0798 15.2998C21.6727 20.0213 16.7435 20.4063 11.2882 20.4063Z" fill="black"/>
</g>
<path fill-rule="evenodd" clip-rule="evenodd" d="M11.2312 25.2507H11.2289C9.92103 25.2495 8.68319 24.6732 7.74403 23.6267C7.42086 23.2685 7.45003 22.7144 7.80936 22.3924C8.16869 22.068 8.72169 22.0972 9.04486 22.4577C9.64919 23.1309 10.425 23.5007 11.23 23.5007H11.2312C12.0397 23.5007 12.819 23.1309 13.4245 22.4565C13.7489 22.0984 14.3019 22.0692 14.66 22.3924C15.0194 22.7155 15.0485 23.2697 14.7254 23.6279C13.7827 24.6744 12.5425 25.2507 11.2312 25.2507Z" fill="black"/>
</svg>
